<?xml version="1.0" encoding="UTF-8"?>
<svg xmlns="http://www.w3.org/2000/svg" xmlns:xlink="http://www.w3.org/1999/xlink" width="32px" height="32px" viewBox="0 0 32 32" version="1.1">
<g id="surface1">
<path style=" stroke:none;fill-rule:evenodd;fill:rgb(10.980392%,15.294118%,29.803923%);fill-opacity:1;" d="M 29.332031 16 C 29.332031 23.363281 23.363281 29.332031 16 29.332031 C 8.636719 29.332031 2.667969 23.363281 2.667969 16 C 2.667969 8.636719 8.636719 2.667969 16 2.667969 C 23.363281 2.667969 29.332031 8.636719 29.332031 16 Z M 21.375 11.960938 C 21.765625 12.351562 21.765625 12.984375 21.375 13.375 L 14.707031 20.039062 C 14.316406 20.429688 13.683594 20.429688 13.292969 20.039062 L 10.625 17.375 C 10.234375 16.984375 10.234375 16.351562 10.625 15.960938 C 11.015625 15.570312 11.648438 15.570312 12.039062 15.960938 L 14 17.917969 L 16.980469 14.9375 L 19.960938 11.960938 C 20.351562 11.570312 20.984375 11.570312 21.375 11.960938 Z M 21.375 11.960938 "/>
</g>
</svg>
