<?xml version="1.0" encoding="UTF-8"?>
<svg xmlns="http://www.w3.org/2000/svg" xmlns:xlink="http://www.w3.org/1999/xlink" width="16px" height="16px" viewBox="0 0 16 16" version="1.1">
<g id="surface1">
<path style=" stroke:none;fill-rule:nonzero;fill:rgb(0%,0%,0%);fill-opacity:1;" d="M 15.960938 3.507812 C 15.886719 3.144531 15.726562 2.8125 15.5 2.539062 C 15.453125 2.476562 15.40625 2.421875 15.351562 2.371094 C 14.953125 1.96875 14.390625 1.71875 13.78125 1.71875 L 2.21875 1.71875 C 1.609375 1.71875 1.050781 1.96875 0.648438 2.371094 C 0.597656 2.421875 0.546875 2.476562 0.5 2.539062 C 0.273438 2.8125 0.113281 3.144531 0.0429688 3.507812 C 0.015625 3.648438 0 3.792969 0 3.9375 L 0 12.0625 C 0 12.371094 0.0664062 12.671875 0.183594 12.941406 C 0.292969 13.199219 0.453125 13.433594 0.648438 13.628906 C 0.699219 13.679688 0.75 13.726562 0.804688 13.769531 C 1.1875 14.085938 1.683594 14.28125 2.21875 14.28125 L 13.78125 14.28125 C 14.320312 14.28125 14.8125 14.085938 15.195312 13.765625 C 15.25 13.726562 15.300781 13.679688 15.351562 13.628906 C 15.546875 13.433594 15.707031 13.199219 15.820312 12.941406 L 15.820312 12.9375 C 15.9375 12.667969 16 12.371094 16 12.0625 L 16 3.9375 C 16 3.792969 15.984375 3.648438 15.960938 3.507812 Z M 1.453125 3.171875 C 1.652344 2.976562 1.917969 2.855469 2.21875 2.855469 L 13.78125 2.855469 C 14.082031 2.855469 14.351562 2.976562 14.546875 3.171875 C 14.582031 3.210938 14.617188 3.25 14.644531 3.289062 L 8.585938 8.570312 C 8.417969 8.714844 8.210938 8.789062 8 8.789062 C 7.789062 8.789062 7.585938 8.714844 7.414062 8.570312 L 1.359375 3.285156 C 1.382812 3.246094 1.417969 3.210938 1.453125 3.171875 Z M 1.132812 12.0625 L 1.132812 4.460938 L 5.523438 8.285156 L 1.136719 12.109375 C 1.132812 12.09375 1.132812 12.078125 1.132812 12.0625 Z M 13.78125 13.144531 L 2.21875 13.144531 C 2.023438 13.144531 1.839844 13.09375 1.683594 13 L 6.304688 8.96875 L 6.738281 9.347656 C 7.101562 9.660156 7.554688 9.820312 8 9.820312 C 8.449219 9.820312 8.902344 9.660156 9.265625 9.347656 L 9.695312 8.96875 L 14.320312 13 C 14.160156 13.09375 13.976562 13.144531 13.78125 13.144531 Z M 14.867188 12.0625 C 14.867188 12.078125 14.867188 12.09375 14.863281 12.109375 L 10.480469 8.289062 L 14.867188 4.460938 Z M 14.867188 12.0625 "/>
</g>
</svg>
