<?xml version="1.0" encoding="UTF-8"?>
<svg xmlns="http://www.w3.org/2000/svg" xmlns:xlink="http://www.w3.org/1999/xlink" width="32px" height="32px" viewBox="0 0 32 32" version="1.1">
<g id="surface1">
<path style=" stroke:none;fill-rule:evenodd;fill:rgb(5.882353%,5.882353%,5.882353%);fill-opacity:1;" d="M 26.667969 1.332031 C 28.875 1.332031 30.667969 3.125 30.667969 5.332031 L 30.667969 26.667969 C 30.667969 28.875 28.875 30.667969 26.667969 30.667969 L 5.332031 30.667969 C 3.125 30.667969 1.332031 28.875 1.332031 26.667969 L 1.332031 5.332031 C 1.332031 3.125 3.125 1.332031 5.332031 1.332031 Z M 26.667969 4 C 27.402344 4 28 4.597656 28 5.332031 L 28 26.667969 C 28 27.402344 27.402344 28 26.667969 28 L 20 28 L 20 18.667969 L 22.769531 18.667969 C 23.34375 18.667969 23.851562 18.300781 24.03125 17.753906 L 24.625 15.984375 C 24.839844 15.335938 24.359375 14.667969 23.675781 14.667969 L 20 14.667969 L 20 12 C 20 11.332031 20.667969 10.667969 21.332031 10.667969 L 24 10.667969 C 24.738281 10.667969 25.332031 10.070312 25.332031 9.332031 L 25.332031 8.417969 C 25.332031 7.988281 25.058594 7.601562 24.640625 7.492188 C 22.894531 7.03125 21.332031 7.03125 21.332031 7.03125 C 18 7.03125 16 9.332031 16 11.332031 L 16 14.667969 L 13.332031 14.667969 C 12.597656 14.667969 12 15.261719 12 16 L 12 17.332031 C 12 18.070312 12.597656 18.667969 13.332031 18.667969 L 16 18.667969 L 16 28 L 5.332031 28 C 4.597656 28 4 27.402344 4 26.667969 L 4 5.332031 C 4 4.597656 4.597656 4 5.332031 4 Z M 26.667969 4 "/>
</g>
</svg>
