<?xml version="1.0" encoding="UTF-8"?>
<svg xmlns="http://www.w3.org/2000/svg" xmlns:xlink="http://www.w3.org/1999/xlink" width="32px" height="32px" viewBox="0 0 32 32" version="1.1">
<defs>
<clipPath id="clip1">
  <path d="M 1.046875 0.191406 L 30.867188 0.191406 L 30.867188 31.828125 L 1.046875 31.828125 Z M 1.046875 0.191406 "/>
</clipPath>
</defs>
<g id="surface1">
<g clip-path="url(#clip1)" clip-rule="nonzero">
<path style=" stroke:none;fill-rule:nonzero;fill:#ffffff;fill-opacity:1;" d="M 15.027344 6.605469 L 15.027344 4.695312 C 14.394531 4.421875 13.808594 4.039062 13.578125 3.296875 C 13.441406 2.824219 13.46875 2.320312 13.652344 1.863281 C 14 0.882812 15.246094 0.152344 16.382812 0.257812 C 17.296875 0.34375 17.921875 0.949219 18.054688 1.875 C 18.28125 3.488281 17.863281 4.261719 16.410156 4.828125 C 16.386719 5.210938 16.363281 5.621094 16.332031 6.160156 C 16.71875 5.863281 17.007812 5.636719 17.308594 5.421875 C 17.730469 5.101562 18.167969 4.800781 18.621094 4.523438 C 20.085938 3.691406 21.503906 3.847656 22.875 4.773438 C 23.5 5.195312 24.132812 5.605469 24.777344 5.996094 C 25.933594 6.703125 27.230469 7.152344 28.578125 7.308594 C 28.929688 7.355469 29.277344 7.429688 29.617188 7.527344 C 30.84375 7.875 31.152344 8.976562 30.242188 9.851562 C 28.980469 11.070312 27.421875 11.691406 25.703125 11.859375 C 23.953125 12.015625 22.191406 11.890625 20.480469 11.488281 C 19.292969 11.21875 18.097656 10.984375 16.902344 10.734375 C 16.667969 10.6875 16.429688 10.660156 16.164062 10.621094 L 16.164062 16.546875 C 17.070312 16.199219 17.878906 15.917969 18.445312 15.226562 C 18.648438 14.964844 18.789062 14.664062 18.863281 14.339844 C 18.992188 13.804688 18.839844 13.636719 18.355469 13.359375 C 17.957031 13.121094 17.585938 12.84375 17.253906 12.523438 C 17.125 12.410156 17.042969 12.257812 17.011719 12.09375 C 16.984375 11.925781 17.011719 11.753906 17.089844 11.605469 C 17.152344 11.445312 17.269531 11.316406 17.417969 11.234375 C 17.566406 11.15625 17.738281 11.128906 17.90625 11.164062 C 18.285156 11.238281 18.71875 11.335938 18.996094 11.578125 C 21.054688 13.363281 20.695312 15.71875 18.949219 17.046875 C 18.597656 17.3125 18.210938 17.535156 17.792969 17.8125 C 17.988281 17.878906 18.148438 17.933594 18.308594 17.984375 C 19.101562 18.214844 19.832031 18.609375 20.464844 19.136719 C 21.511719 20.054688 21.625 21.226562 20.757812 22.316406 C 19.996094 23.285156 18.972656 23.894531 17.847656 24.351562 C 17.527344 24.480469 17.195312 24.59375 16.785156 24.746094 C 17.082031 24.957031 17.316406 25.109375 17.53125 25.285156 C 18.339844 25.9375 18.84375 26.726562 18.597656 27.820312 C 18.53125 28.113281 18.40625 28.390625 18.222656 28.628906 C 18.042969 28.871094 17.8125 29.066406 17.550781 29.210938 C 17.253906 29.386719 16.988281 29.609375 16.664062 29.84375 C 17.054688 30.023438 17.363281 30.136719 17.648438 30.304688 C 17.898438 30.453125 18.132812 30.667969 17.996094 31.007812 C 17.859375 31.339844 17.558594 31.382812 17.265625 31.289062 C 16.761719 31.132812 16.273438 30.9375 15.746094 30.746094 C 15.578125 31.164062 15.59375 31.78125 15.007812 31.78125 C 14.738281 31.78125 14.46875 31.425781 14.128906 31.183594 C 13.957031 31.246094 13.675781 31.367188 13.378906 31.449219 C 13.136719 31.515625 12.867188 31.515625 12.75 31.242188 C 12.632812 30.972656 12.804688 30.765625 13.015625 30.625 C 13.324219 30.414062 13.648438 30.230469 13.894531 30.082031 C 13.292969 29.742188 12.660156 29.425781 12.074219 29.042969 C 10.554688 28.050781 10.769531 26.441406 11.628906 25.414062 C 11.753906 25.261719 11.898438 25.121094 12.085938 24.917969 C 10.773438 24.179688 9.644531 23.285156 9.625 21.644531 C 9.609375 20.050781 10.488281 18.949219 11.84375 18.109375 C 11.664062 17.960938 11.523438 17.863281 11.40625 17.75 C 11.121094 17.503906 10.855469 17.234375 10.613281 16.949219 C 9.777344 15.875 9.695312 14.738281 10.367188 13.539062 C 10.925781 12.546875 11.761719 11.890625 12.777344 11.433594 C 13.210938 11.238281 13.550781 11.320312 13.78125 11.644531 C 13.84375 11.726562 13.886719 11.816406 13.910156 11.917969 C 13.929688 12.015625 13.933594 12.117188 13.917969 12.214844 C 13.902344 12.316406 13.863281 12.410156 13.808594 12.496094 C 13.753906 12.578125 13.683594 12.652344 13.601562 12.710938 C 13.261719 12.960938 12.894531 13.167969 12.503906 13.324219 C 12.234375 13.425781 11.996094 13.589844 11.800781 13.804688 C 11.609375 14.015625 11.46875 14.273438 11.398438 14.550781 C 11.335938 14.742188 11.316406 14.945312 11.335938 15.140625 C 11.355469 15.339844 11.417969 15.535156 11.511719 15.707031 C 11.996094 16.597656 12.824219 17.027344 13.742188 17.25 C 14.0625 17.328125 14.460938 17.113281 14.890625 17.015625 C 14.949219 14.9375 15.003906 12.886719 15.0625 10.75 C 14.8125 10.753906 14.566406 10.773438 14.320312 10.800781 C 12.53125 11.128906 10.742188 11.457031 8.957031 11.800781 C 7.335938 12.113281 5.71875 12.347656 4.074219 11.996094 C 3.199219 11.808594 2.355469 11.535156 1.660156 10.945312 C 1.269531 10.613281 0.96875 10.214844 1.164062 9.675781 C 1.253906 9.40625 1.421875 9.167969 1.648438 8.992188 C 2.089844 8.703125 2.5625 8.460938 3.058594 8.265625 C 4.765625 7.597656 6.339844 6.714844 7.710938 5.484375 C 8.007812 5.21875 8.324219 4.96875 8.632812 4.71875 C 9.296875 4.183594 10.046875 4.027344 10.882812 4.195312 C 12.140625 4.453125 13.152344 5.167969 14.15625 5.898438 C 14.433594 6.101562 14.695312 6.332031 15.027344 6.605469 Z M 16.109375 9.449219 C 17.246094 9.621094 18.296875 9.761719 19.339844 9.945312 C 21.085938 10.253906 22.824219 10.570312 24.613281 10.511719 C 25.945312 10.46875 27.246094 10.082031 28.382812 9.382812 C 28.539062 9.269531 28.691406 9.144531 28.832031 9.011719 C 28.289062 8.898438 27.835938 8.828125 27.394531 8.707031 C 25.535156 8.195312 23.871094 7.292969 22.332031 6.140625 C 21.183594 5.277344 20.371094 5.257812 19.164062 6.027344 C 18.976562 6.144531 18.796875 6.273438 18.625 6.410156 C 17.933594 6.96875 17.261719 7.546875 16.554688 8.082031 C 16.277344 8.289062 16.136719 8.507812 16.152344 8.851562 C 16.148438 9.050781 16.132812 9.25 16.109375 9.449219 Z M 15.136719 8.675781 C 14.621094 8.292969 14.21875 8.027344 13.855469 7.714844 C 13.003906 6.96875 12.046875 6.359375 11.015625 5.898438 C 10.285156 5.582031 9.621094 5.628906 9 6.21875 C 7.277344 7.859375 5.265625 9.039062 3.035156 9.859375 C 2.8125 9.960938 2.597656 10.078125 2.390625 10.203125 C 2.828125 10.394531 3.121094 10.546875 3.429688 10.65625 C 4.808594 11.140625 6.210938 11.121094 7.621094 10.839844 C 9.359375 10.496094 11.089844 10.121094 12.828125 9.777344 C 13.582031 9.628906 14.34375 9.523438 15.136719 9.394531 Z M 14.832031 19.0625 C 13.84375 19.066406 12.289062 19.800781 11.761719 20.496094 C 11.175781 21.257812 11.167969 22.207031 11.894531 22.738281 C 12.523438 23.199219 13.273438 23.507812 14.003906 23.800781 C 14.394531 23.960938 14.671875 23.710938 14.699219 23.28125 C 14.753906 22.289062 14.792969 21.296875 14.828125 20.304688 C 14.84375 19.890625 14.832031 19.476562 14.832031 19.0625 Z M 16.222656 23.230469 C 16.71875 23.042969 17.179688 22.898438 17.621094 22.699219 C 18.332031 22.378906 18.984375 21.964844 19.488281 21.351562 C 19.839844 20.925781 19.839844 20.675781 19.4375 20.328125 C 18.535156 19.539062 17.441406 19.273438 16.222656 19.199219 Z M 14.488281 25.769531 C 13.671875 25.664062 12.75 26.277344 12.613281 26.925781 C 12.578125 27.066406 12.585938 27.214844 12.632812 27.351562 C 12.679688 27.488281 12.765625 27.609375 12.882812 27.699219 C 13.316406 28.066406 13.757812 28.417969 14.269531 28.839844 C 14.347656 27.761719 14.417969 26.785156 14.488281 25.769531 Z M 16.6875 2.753906 C 16.695312 1.90625 16.386719 1.628906 15.464844 1.570312 C 15.046875 1.542969 14.757812 1.753906 14.652344 2.492188 C 14.566406 3.085938 15.050781 3.515625 15.804688 3.5625 C 16.496094 3.609375 16.683594 3.4375 16.6875 2.753906 Z M 15.945312 26.347656 C 15.898438 26.792969 15.835938 27.226562 15.8125 27.664062 C 15.792969 28.109375 15.808594 28.554688 15.808594 29.066406 C 16.355469 28.753906 16.597656 28.332031 16.777344 27.847656 C 17.082031 27.035156 16.871094 26.625 15.945312 26.347656 Z M 15.945312 26.347656 "/>
</g>
</g>
</svg>
