<?xml version="1.0" encoding="UTF-8"?>
<svg xmlns="http://www.w3.org/2000/svg" xmlns:xlink="http://www.w3.org/1999/xlink" width="16px" height="16px" viewBox="0 0 16 16" version="1.1">
<g id="surface1">
<path style="fill:none;stroke-width:2;stroke-linecap:round;stroke-linejoin:round;stroke:rgb(0%,0%,0%);stroke-opacity:1;stroke-miterlimit:4;" d="M 3.000001 5.496095 C 3.000001 14.056644 9.937502 21.000005 18.498051 21.000005 C 18.88477 21.000005 19.26563 20.982427 19.646489 20.958989 C 20.080083 20.923833 20.29688 20.906255 20.496099 20.794927 C 20.660161 20.701177 20.818364 20.531255 20.900396 20.361333 C 21.000005 20.156255 21.000005 19.91602 21.000005 19.435552 L 21.000005 16.617191 C 21.000005 16.212894 21.000005 16.013676 20.929692 15.837894 C 20.871099 15.685551 20.777349 15.550785 20.654302 15.445316 C 20.513677 15.322269 20.326177 15.251957 19.945317 15.117191 L 16.740238 13.951175 C 16.294926 13.787113 16.078129 13.710941 15.867191 13.72266 C 15.679691 13.734378 15.50391 13.798831 15.351566 13.9043 C 15.181644 14.027347 15.058597 14.226566 14.818363 14.630863 L 13.99805 15.996098 C 11.349612 14.800785 9.199221 12.644534 7.998049 9.996096 L 9.369143 9.175783 C 9.76758 8.935549 9.972659 8.812502 10.089846 8.64258 C 10.201174 8.490236 10.265627 8.314455 10.277346 8.132814 C 10.289065 7.921877 10.207034 7.699221 10.048831 7.259767 L 8.882815 4.048829 C 8.74219 3.673829 8.671877 3.48047 8.55469 3.339845 C 8.443361 3.216798 8.308596 3.123048 8.156252 3.064454 C 7.98633 3.000001 7.781252 3.000001 7.376955 3.000001 L 4.558595 3.000001 C 4.078126 3.000001 3.837892 3.000001 3.632813 3.09961 C 3.462891 3.181641 3.298829 3.333985 3.205079 3.498048 C 3.087891 3.697267 3.070313 3.914063 3.041016 4.347657 C 3.011719 4.728517 3.000001 5.115236 3.000001 5.496095 Z M 3.000001 5.496095 " transform="matrix(0.666667,0,0,0.666667,0,0)"/>
</g>
</svg>
